<svg xmlns="http://www.w3.org/2000/svg" viewBox="0 0 320 52" role="img" aria-label="Afrovanguard"><text x="6" y="37" font-family="Helvetica Neue,Arial,sans-serif" font-weight="800" font-size="29" letter-spacing="-1"><tspan fill="#ffffff">AFRO</tspan><tspan fill="#f3b416">VANGUARD</tspan></text><path transform="translate(250,9)" d="M16 0 l7 2 0 6 5 5 -3 6 -4 2 -3 9 -5 -3 -2 -10 -6 -3 1 -8 6 -3 4 -3z" fill="#16a34a" opacity="0.92"/><g><rect x="6" y="43" width="14" height="3.4" rx="1" fill="#16a34a"/><rect x="23" y="43" width="14" height="3.4" rx="1" fill="#f3b416"/><rect x="40" y="43" width="14" height="3.4" rx="1" fill="#d4380d"/><rect x="57" y="43" width="14" height="3.4" rx="1" fill="#16a34a"/><rect x="74" y="43" width="14" height="3.4" rx="1" fill="#f3b416"/><rect x="91" y="43" width="14" height="3.4" rx="1" fill="#d4380d"/><rect x="108" y="43" width="14" height="3.4" rx="1" fill="#16a34a"/><rect x="125" y="43" width="14" height="3.4" rx="1" fill="#f3b416"/><rect x="142" y="43" width="14" height="3.4" rx="1" fill="#d4380d"/><rect x="159" y="43" width="14" height="3.4" rx="1" fill="#16a34a"/><rect x="176" y="43" width="14" height="3.4" rx="1" fill="#f3b416"/><rect x="193" y="43" width="14" height="3.4" rx="1" fill="#d4380d"/></g></svg>