<svg xmlns="http://www.w3.org/2000/svg" viewBox="0 0 320 52" role="img" aria-label="Afrovanguard"><text x="6" y="37" font-family="Helvetica Neue,Arial,sans-serif" font-weight="800" font-size="29" letter-spacing="-1"><tspan fill="#ffffff">AFRO</tspan><tspan fill="#f3b416">VANGUARD</tspan></text><g transform="translate(248,17)"><path d="M2 -10 A10 10 0 1 0 2 10 A7.5 7.5 0 1 1 2 -10 Z" fill="#f3b416"/></g><polygon points="272,4 273.2,7.3 276.8,7.5 274,9.6 274.9,13 272,11.1 269.1,13 270,9.6 267.2,7.5 270.8,7.3" fill="#f3b416"/><polygon points="290,18.4 290.9,20.8 293.4,20.9 291.4,22.5 292.1,24.9 290,23.5 287.9,24.9 288.6,22.5 286.6,20.9 289.1,20.8" fill="#fff"/><g transform="translate(300,8)"><rect x="-3" y="2" width="6" height="11" rx="1.5" fill="#16a34a"/><rect x="-2" y="0" width="4" height="2" fill="#f3b416"/><line x1="0" y1="-4" x2="0" y2="0" stroke="#f3b416" stroke-width="1.4"/></g></svg>